<svg width="24" height="24" viewBox="0 0 24 24" fill="none" xmlns="http://www.w3.org/2000/svg">
<path d="M21 18.4996H14.82C14.6707 18.0802 14.4299 17.6993 14.1151 17.3845C13.8003 17.0697 13.4194 16.8289 13 16.6796V13.4996H16.17C17.2289 13.5344 18.2637 13.1798 19.0787 12.5029C19.8937 11.826 20.4323 10.8738 20.5924 9.82657C20.7526 8.77932 20.5233 7.70969 19.9478 6.82015C19.3724 5.93061 18.4909 5.28289 17.47 4.99961C16.9352 3.81469 16.0301 2.8355 14.8907 2.20942C13.7514 1.58334 12.4396 1.34423 11.1526 1.52808C9.86569 1.71193 8.67327 2.30879 7.75483 3.22884C6.83639 4.14889 6.24161 5.34235 6.06 6.62961C5.24619 6.85782 4.54245 7.37281 4.07876 8.07946C3.61507 8.78611 3.42276 9.63669 3.53734 10.4741C3.65192 11.3115 4.06565 12.0791 4.70212 12.6353C5.33859 13.1914 6.1548 13.4984 7 13.4996H11V16.6796C10.5806 16.8289 10.1997 17.0697 9.8849 17.3845C9.57011 17.6993 9.32932 18.0802 9.18 18.4996H3C2.73478 18.4996 2.48043 18.605 2.29289 18.7925C2.10536 18.98 2 19.2344 2 19.4996C2 19.7648 2.10536 20.0192 2.29289 20.2067C2.48043 20.3943 2.73478 20.4996 3 20.4996H9.18C9.3902 21.0788 9.77363 21.5792 10.2782 21.9328C10.7827 22.2864 11.3839 22.4761 12 22.4761C12.6161 22.4761 13.2173 22.2864 13.7218 21.9328C14.2264 21.5792 14.6098 21.0788 14.82 20.4996H21C21.2652 20.4996 21.5196 20.3943 21.7071 20.2067C21.8946 20.0192 22 19.7648 22 19.4996C22 19.2344 21.8946 18.98 21.7071 18.7925C21.5196 18.605 21.2652 18.4996 21 18.4996ZM7 11.4996C6.60218 11.4996 6.22064 11.3416 5.93934 11.0603C5.65804 10.779 5.5 10.3974 5.5 9.99961C5.5 9.60179 5.65804 9.22025 5.93934 8.93895C6.22064 8.65765 6.60218 8.49961 7 8.49961C7.26522 8.49961 7.51957 8.39425 7.70711 8.20672C7.89464 8.01918 8 7.76483 8 7.49961C7.99738 6.55014 8.33259 5.6307 8.94569 4.90571C9.55878 4.18071 10.4098 3.69745 11.3465 3.54233C12.2832 3.38721 13.2446 3.57036 14.0586 4.05902C14.8727 4.54768 15.4864 5.30998 15.79 6.20961C15.8472 6.38145 15.9499 6.53454 16.0873 6.65254C16.2247 6.77054 16.3915 6.84903 16.57 6.87961C17.1113 6.96987 17.6027 7.24988 17.9564 7.66948C18.31 8.08908 18.5027 8.62087 18.5 9.16961C18.4974 9.78675 18.251 10.3779 17.8147 10.8143C17.3783 11.2507 16.7871 11.497 16.17 11.4996H7ZM12 20.4996C11.8022 20.4996 11.6089 20.441 11.4444 20.3311C11.28 20.2212 11.1518 20.065 11.0761 19.8823C11.0004 19.6996 10.9806 19.4985 11.0192 19.3045C11.0578 19.1105 11.153 18.9324 11.2929 18.7925C11.4327 18.6527 11.6109 18.5574 11.8049 18.5188C11.9989 18.4802 12.2 18.5 12.3827 18.5757C12.5654 18.6514 12.7216 18.7796 12.8315 18.944C12.9414 19.1085 13 19.3018 13 19.4996C13 19.7648 12.8946 20.0192 12.7071 20.2067C12.5196 20.3943 12.2652 20.4996 12 20.4996Z" fill="url(#paint0_linear)"/>
<defs>
<linearGradient id="paint0_linear" x1="1.5" y1="1.99298" x2="23.4246" y2="20.8774" gradientUnits="userSpaceOnUse">
<stop stop-color="#329FFF"/>
<stop offset="1" stop-color="#9CD0FF"/>
</linearGradient>
</defs>
</svg>
