<svg width="24" height="24" viewBox="0 0 24 24" fill="none" xmlns="http://www.w3.org/2000/svg">
<path d="M21.4909 10.1901L20.4909 9.64008L11.4909 4.64008H11.3809C11.3195 4.61416 11.2559 4.59407 11.1909 4.58008H11.0009H10.8209C10.7525 4.59408 10.6856 4.61416 10.6209 4.64008H10.5109L1.51085 9.64008C1.35696 9.7273 1.22895 9.85378 1.13989 10.0066C1.05083 10.1595 1.00391 10.3332 1.00391 10.5101C1.00391 10.687 1.05083 10.8607 1.13989 11.0135C1.22895 11.1664 1.35696 11.2929 1.51085 11.3801L4.00085 12.7601V17.5001C4.00085 18.2957 4.31693 19.0588 4.87953 19.6214C5.44214 20.184 6.20521 20.5001 7.00085 20.5001H15.0009C15.7965 20.5001 16.5596 20.184 17.1222 19.6214C17.6848 19.0588 18.0009 18.2957 18.0009 17.5001V12.7601L20.0009 11.6401V14.5001C20.0009 14.7653 20.1062 15.0196 20.2937 15.2072C20.4813 15.3947 20.7356 15.5001 21.0009 15.5001C21.2661 15.5001 21.5204 15.3947 21.708 15.2072C21.8955 15.0196 22.0009 14.7653 22.0009 14.5001V11.0601C22.0005 10.8829 21.9532 10.7089 21.8636 10.5561C21.7739 10.4032 21.6453 10.2769 21.4909 10.1901V10.1901ZM16.0009 17.5001C16.0009 17.7653 15.8955 18.0196 15.708 18.2072C15.5204 18.3947 15.2661 18.5001 15.0009 18.5001H7.00085C6.73564 18.5001 6.48128 18.3947 6.29375 18.2072C6.10621 18.0196 6.00085 17.7653 6.00085 17.5001V13.8701L10.5109 16.3701L10.6609 16.4301H10.7509C10.8339 16.4405 10.9178 16.4405 11.0009 16.4301C11.0839 16.4405 11.1678 16.4405 11.2509 16.4301H11.3409C11.3939 16.4189 11.4447 16.3986 11.4909 16.3701L16.0009 13.8701V17.5001ZM11.0009 14.3601L4.06085 10.5001L11.0009 6.64008L17.9409 10.5001L11.0009 14.3601Z" fill="black"/>
</svg>
